<svg width="200" height="200" viewBox="0 0 200 200" version="1.1" xmlns="http://www.w3.org/2000/svg"
     xmlns:xlink="http://www.w3.org/1999/xlink">
    <g class="transform-group">
        <g transform="scale(0.1953125, 0.1953125)">
            <path d="M51.10647 844.661496c0-1.496074-3.062755-4.530177-6.804986-6.736425-3.742231-2.209318-8.280594-7.108908-10.082636-10.887978-1.802042-3.778046-4.425799-6.870478-5.830799-6.870478-2.079358 0-2.558265-17.97642-2.558265-96.013751 0-89.692788 0.224104-96.092545 3.402493-97.209996 1.870604-0.657986 6.375198-3.384074 10.007935-6.060019 3.63376-2.675946 8.982582-4.864798 11.885701-4.864798 11.460006 0 31.18628-20.644179 36.888142-38.606273 4.758374-14.995529 4.932336-24.610514 0.717338-39.632649-4.889357-17.425881-15.747659-28.370141-36.06438-36.353976-8.880251-3.488451-17.525142-7.568373-19.21462-9.06547-1.687432-1.496074-4.093225-2.720971-5.346775-2.720971-1.700735 0-2.276856-18.951631-2.276856-74.854848 0-58.577117 0.530073-74.858942 2.430352-74.874291 1.336438-0.010233 3.864004-3.433192 5.614881-7.605212 2.020006-4.811586 6.235005-9.604752 11.521404-13.104459l8.335852-5.51869 75.602885-0.62831c56.577576-0.469698 76.304873-0.042979 78.401628 1.696642 2.410909 2.00261 2.795673 38.436404 2.77316 263.108397-0.013303 143.42762-0.553609 262.748193-1.197268 265.155009l-1.173732 4.374634-78.515215 0C63.586712 847.388607 51.10647 846.955748 51.10647 844.661496zM278.559808 843.986113c-0.016373-1.871627-0.030699-121.457236-0.034792-265.744433-0.007163-209.784934 0.487094-262.654049 2.456958-263.906575 3.957125-2.51017 553.162492-2.032286 557.8697 0.48607 5.679349 3.040243 11.786441 17.83725 10.127661 24.546046-2.202155 8.916067-9.825786 19.405979-15.662725 21.549805-9.31618 3.422959-21.240767 16.099676-22.750143 24.190959-2.068102 11.07422 1.633197 21.458731 10.500145 29.469172 4.270257 3.857864 8.891508 7.014764 10.269901 7.014764 1.379417 0 6.349615 3.916193 11.04659 8.701173 7.803733 7.952112 8.613168 9.700943 9.378601 20.286022 1.025353 14.171768-3.211135 21.413706-15.371082 26.278503-23.37129 9.350972-34.109866 29.141714-26.15366 48.190559 3.222391 7.710612 14.938224 18.97926 23.457248 22.559808 6.843872 2.87856 15.46318 14.322194 17.356296 23.043832 1.856277 8.550747-1.818415 20.641109-8.272407 27.206642-2.984984 3.038196-10.280134 8.900717-16.208147 13.030781-25.200962 17.551748-24.831548 37.951357 1.023306 56.399521 16.824177 12.006452 24.826432 27.327392 21.159926 40.513716-1.995447 7.176446-15.440667 20.98494-20.432355 20.98494-5.757121 0-20.24202 15.858176-23.052019 25.237801-2.12643 7.097652-1.895163 8.875135 2.331092 17.900695 3.229554 6.898107 8.328689 12.994965 16.35755 19.556405 6.41613 5.244444 13.192464 11.874445 15.058974 14.735609 4.822842 7.394411 4.3951 21.765723-0.962931 32.390711l-4.373611 8.673543-277.547247 0.054235C293.09178 847.384513 278.585391 847.209528 278.559808 843.986113L278.559808 843.986113zM547.152103 728.957287c3.090385-3.815909 3.634784-7.919367 3.634784-27.367301 0-16.120143 0.729617-23.482831 2.468215-24.925692 1.449002-1.204431 16.282848-2.305509 35.904745-2.669806 40.980343-0.759293 40.064484-0.226151 41.051975-23.911596 0.647753-15.537881 0.423649-16.60826-4.485151-21.517059l-5.164626-5.164626-32.655747 0.676405c-36.326347 0.75213-39.064714-0.007163-39.064714-10.841929 0-3.405563 1.234107-7.881504 2.742461-9.943466 2.533706-3.461845 5.439896-3.749394 38.077224-3.774977 34.773991-0.023536 35.395138-0.096191 39.059598-4.615111 2.794649-3.440355 3.725858-7.662517 3.725858-16.885576 0-15.582907-2.209318-21.305235-10.07445-26.090215-5.582135-3.39226-8.575306-3.687996-26.805506-2.647293-17.282618 0.991584-20.923542 0.691755-23.066345-1.886977-2.0241-2.442632-2.059915-3.975545-0.170892-7.561209 1.304715-2.476401 2.902096-4.936429 3.550873-5.472642 0.649799-0.535189 4.056386-4.909823 7.570419-9.721409 3.515057-4.811586 11.279904-15.240099 17.257036-23.173792 35.645848-47.311539 37.19411-51.160193 25.419949-63.194274-9.759271-9.976212-26.004257-19.228947-31.387871-17.877159-4.774747 1.198292-15.622816 14.187117-30.343075 36.32737-36.21276 54.463426-38.999223 58.196447-43.485397 58.196447-4.259 0-10.497075-7.186679-36.229133-41.73452-34.245965-45.976124-40.809451-53.535287-46.482661-53.535287-2.060939 0-29.832446 21.049409-32.747845 24.818245-5.26491 6.811126-2.914376 15.210423 7.843642 28.052916 5.652743 6.743588 17.244756 21.346167 25.762757 32.44904 8.516977 11.102872 18.768459 24.062022 22.778796 28.795836 4.010337 4.734838 7.291057 9.379625 7.291057 10.321066 0 3.801583-5.881964 4.686742-27.468608 4.126994-33.755802-0.871857-39.193651 3.080152-37.389562 27.175943 1.943258 25.928532 2.111081 26.019607 45.599548 24.628934 26.802436-0.853437 31.640628-0.553609 34.901905 2.158153 5.65172 4.702092 6.825452 14.020318 2.447748 19.428491-3.53757 4.367471-4.369517 4.458545-37.411051 4.231371l-33.790594-0.233314-5.52483 5.293563c-4.915963 4.711302-5.52483 6.631024-5.52483 17.442254 0 26.010397 4.942569 28.838815 48.13837 27.536146 38.678928-1.166569 37.410028-2.00568 37.410028 24.706705 0 11.095709 0.841158 22.387893 1.866511 25.089421 2.578732 6.77838 11.069103 8.921183 32.898271 8.296967C541.649785 733.49872 543.888779 732.986043 547.152103 728.957287L547.152103 728.957287zM914.367579 722.452129c0-1.949398 1.87265-6.077416 4.161786-9.174963 5.555529-7.515161 6.989181-22.750143 2.88777-30.682813-1.708921-3.302209-8.767688-11.006681-15.691377-17.119913-11.076266-9.785877-12.831236-12.307304-14.644535-21.050432-1.343601-6.475482-1.431605-13.283538-0.260943-19.549242 1.497097-8.001231 3.463891-11.153014 11.716856-18.781762 10.623965-9.819646 17.577331-22.426779 17.577331-31.874965 0-9.520841-6.925736-21.964244-18.195408-32.700773-9.057283-8.626471-10.771321-11.418051-11.943007-19.444864-0.76134-5.213745-0.411369-14.124695 0.785899-20.089547 1.840928-9.165754 3.986801-12.700253 14.807241-24.387433 13.736862-14.836917 17.83418-24.376177 15.597233-36.301787-1.460258-7.78122-10.096962-21.068851-14.693654-22.604834-5.230118-1.747807-14.7264-13.272281-18.065448-21.926382-7.350408-19.050891-2.039449-34.138518 18.72241-53.18634l14.043854-12.881378 0.641613-18.22713c0.596588-16.891715 0.240477-18.993586-4.860704-28.710902-3.02694-5.76633-8.864902-13.202697-12.974499-16.526395l-7.471159-6.0416-257.859859-0.520863c-142.721539-0.288572-258.617106-1.276063-259.552407-2.212388-1.322112-1.322112-2.313695-52.704362-1.49505-77.468372l0.145309-4.374634 299.419394 0c217.389122 0 299.419394 0.588401 299.419394 2.148943 0 1.182942 2.187829 4.750187 4.860704 7.927553 3.497661 4.155646 4.860704 8.068769 4.860704 13.94357 0 8.54563-2.317789 13.035898-12.897751 24.986067-10.0591 11.363815-14.322194 21.375843-14.322194 33.645284 0 13.930267 3.018753 19.516496 17.163915 31.772634 6.332219 5.484921 12.603039 12.605086 13.936407 15.823384s3.63069 5.852288 5.103228 5.852288c3.664459 0 3.913123 29.127388 0.25071 29.237905-1.337461 0.039909-4.845355 3.565199-7.797593 7.833409-2.953262 4.26821-7.559163 8.592702-10.236132 9.610892-20.692275 7.866155-31.845289 31.609928-23.100114 49.170886 1.705851 3.422959 9.441023 12.346189 17.189498 19.831674 12.031011 11.619642 14.44192 15.074324 16.492626 23.626094 4.909823 20.479427-2.049682 36.652781-19.073404 44.329625-5.779633 2.606361-8.53335 5.430686-10.788717 11.07115-6.483668 16.204054-2.344395 29.965475 12.428054 41.317011 15.223726 11.698436 17.936511 17.814738 17.21508 38.84368l-0.592494 17.250896-12.80463 11.913331c-15.229866 14.164604-17.33276 17.680684-17.33276 29.015847 0 9.266038 2.058892 12.786211 17.011442 29.111015 10.283204 11.224646 14.097066 19.768229 14.097066 31.578206 0 6.856152-1.094938 9.995655-4.771677 13.670348-2.62478 2.625804-5.906523 4.819772-7.291057 4.872984-1.385557 0.057305-15.861246 0.303922-32.169677 0.550539C916.458193 725.96514 914.367579 725.748199 914.367579 722.452129L914.367579 722.452129zM118.186238 259.483846c-2.954285-2.159176-3.304256-4.891404-2.539846-19.843954 0.73678-14.500249 1.864464-19.24839 6.873548-29.004591 6.299473-12.268418 12.880355-19.424398 23.37129-25.419949 3.476171-1.985214 6.318916-4.733814 6.318916-6.108115 0-1.991354 15.738449-2.496867 77.771271-2.496867l77.771271 0 0 41.593304c0 35.288714-0.445138 41.765219-2.932796 42.720987-1.613754 0.618077-43.496653 1.111311-93.071745 1.094938C141.312958 261.997086 120.863207 261.442454 118.186238 259.483846L118.186238 259.483846z"
                  fill="#272636"></path>
        </g>
    </g>
</svg>