<svg width="200" height="200" viewBox="0 0 200 200" version="1.1" xmlns="http://www.w3.org/2000/svg"
     xmlns:xlink="http://www.w3.org/1999/xlink">
    <g class="transform-group">
        <g transform="scale(0.1953125, 0.1953125)">
            <path d="M404.393725 960.006524M953.019901 560.457642 526.192745 133.290749c-8.335852-8.345062-21.844517-8.345062-30.18037 0L175.969269 453.586612c-0.052189 0.052189-0.105401 0.104377-0.156566 0.157589L69.184197 560.457642c-8.335852 8.344039-8.335852 21.85782 0 30.203906 8.335852 8.339946 21.843494 8.339946 30.179346 0l70.275553-70.331835 0 354.247116c0 47.115064 38.284955 85.429695 85.367273 85.429695L404.393725 960.006524c11.797697 0 21.343097-9.54847 21.343097-21.354354l0-192.228069 170.730453 0 0 162.107051 0 51.475372 21.343097 0 72.92694 0 76.461439 0c47.082318 0 85.36318-38.314631 85.36318-85.429695L852.561931 639.632889 852.561931 520.324596l70.279646 70.335928c4.169973 4.166903 9.626241 6.256494 15.087627 6.256494 5.465478 0 10.921747-2.089591 15.09172-6.256494C961.356776 582.315462 961.356776 568.80168 953.019901 560.457642z"
                  fill="#00bb9c"></path>
        </g>
    </g>
</svg>