<svg width="200" height="200" viewBox="0 0 200 200" version="1.1" xmlns="http://www.w3.org/2000/svg"
     xmlns:xlink="http://www.w3.org/1999/xlink">
    <g class="transform-group">
        <g transform="scale(0.1953125, 0.1953125)">
            <path d="M893.275507 824.255021c0-79.918457-79.816129-156.153093-262.983911-234.229639-19.647047-9.209553-15.04227-67.229739 0-78.076546 6.856001-12.177076 78.997502-103.249325 78.895173-234.331968 0.61397-166.488258-131.491956-208.238233-210.387129-208.238233S314.813231 109.593684 314.813231 277.616868c-0.920955 132.719896 68.253023 219.596682 78.895173 234.331968 18.112122 10.539822 19.749375 67.536724 0 78.076546-183.270111 78.076546-262.062956 156.97172-262.983911 234.229639 0 81.351054 114.300789 130.673329 184.088738 130.161687 68.150695 0.306985 371.65664 0 394.475867 0C780.7143 953.598081 893.582492 903.661837 893.275507 824.255021z"
                  fill="#272636"></path>
        </g>
    </g>
</svg>