<svg width="200" height="200" viewBox="0 0 200 200" version="1.1" xmlns="http://www.w3.org/2000/svg"
     xmlns:xlink="http://www.w3.org/1999/xlink">
    <g class="transform-group">
        <g transform="scale(0.1953125, 0.1953125)">
            <path d="M94.374188 846.093101l0-696.595228-27.630399 0 0 696.595228-0.921013 0 0 28.417213 892.359567 0 0-28.417213L94.374188 846.093101zM837.140725 584.903403l0 202.911386 83.076424 0 0-202.911386L837.140725 584.903403zM957.906038 210.82359 963.608134 218.161718 754.934147 497.93261 754.934147 787.835256 671.859769 787.835256 671.859769 510.836501 589.684915 476.197586 589.684915 787.81479 506.609514 787.81479 506.609514 513.926886 424.403959 591.842443 424.403959 787.80558 341.328558 787.80558 341.328558 574.138222 259.153703 513.538029 259.153703 787.835256 176.078302 787.835256 176.078302 688.564321 133.281883 810.91081 118.269366 805.088198 113.746168 801.680589 176.078302 622.908996 176.078302 468.666052 259.153703 468.666052 259.153703 476.074789 341.328558 536.685215 341.328558 178.435948 424.403959 178.435948 424.403959 552.280402 506.609514 474.365868 506.609514 381.777123 589.684915 381.777123 589.684915 441.180048 671.859769 475.798497 671.859769 294.294676 754.934147 294.294676 754.934147 461.369879 949.913689 200.109574 957.906038 210.82359Z"
                  fill="#00bb9c"></path>
        </g>
    </g>
</svg>